<svg viewBox="0 0 32 32" id="icon-system-truck" xmlns="http://www.w3.org/2000/svg"><path d="M22.298 9c.38 0 .687.297.687.664v2.724h3.33c.197 0 .386.082.516.226l3.999 4.412c.11.12.17.276.17.437v5.027a.675.675 0 0 1-.687.663h-1.582C28.429 24.216 27.421 25 26.226 25c-1.195 0-2.203-.784-2.505-1.847H14.56C14.257 24.216 13.249 25 12.054 25c-1.195 0-2.203-.784-2.505-1.847H8.116a.675.675 0 0 1-.687-.663v-.675H4.316a.675.675 0 0 1-.687-.663c0-.367.307-.664.687-.664h3.113v-8.602H1.687A.675.675 0 0 1 1 11.223c0-.367.307-.664.687-.664h5.742v-.895c0-.367.308-.664.687-.664zM12.054 21.307c-.675 0-1.224.53-1.224 1.183 0 .652.549 1.183 1.224 1.183.675 0 1.224-.53 1.224-1.183s-.549-1.183-1.224-1.183zm14.172 0c-.675 0-1.224.53-1.224 1.183 0 .652.549 1.183 1.224 1.183.675 0 1.224-.53 1.224-1.183s-.549-1.183-1.224-1.183zm-4.615-10.98H8.802v11.5h.747c.302-1.064 1.31-1.847 2.505-1.847 1.194 0 2.203.783 2.505 1.846h7.052V10.327zm4.392 3.388h-3.018v8.111h.736c.302-1.063 1.31-1.846 2.505-1.846 1.195 0 2.203.783 2.505 1.846h.896v-4.114l-3.624-3.997zM6.314 16c.379 0 .686.224.686.5s-.307.5-.686.5H.686C.307 17 0 16.776 0 16.5s.307-.5.686-.5z"></path></svg>