<svg viewBox="0 0 32 32" id="social-instagram" xmlns="http://www.w3.org/2000/svg"><path d="M16.938 2.665h.28l.747.003c1.901.006 2.421.027 3.533.077 1.419.065 2.388.29 3.236.62.877.34 1.62.797 2.362 1.538a6.537 6.537 0 0 1 1.538 2.362c.33.848.555 1.817.62 3.237.059 1.289.077 1.783.08 4.56v1.876c-.003 2.777-.021 3.27-.08 4.56-.065 1.419-.29 2.388-.62 3.236a6.537 6.537 0 0 1-1.538 2.362 6.537 6.537 0 0 1-2.362 1.538c-.848.33-1.817.555-3.236.62-1.29.059-1.783.077-4.56.08h-1.877c-2.776-.003-3.27-.021-4.56-.08-1.419-.065-2.388-.29-3.236-.62a6.537 6.537 0 0 1-2.362-1.538 6.536 6.536 0 0 1-1.538-2.362c-.33-.848-.555-1.817-.62-3.236-.05-1.112-.07-1.632-.077-3.533l-.002-.748v-2.435l.002-.747c.006-1.902.027-2.422.077-3.533.065-1.42.29-2.389.62-3.237.34-.877.797-1.62 1.538-2.362a6.536 6.536 0 0 1 2.362-1.538c.848-.33 1.817-.555 3.237-.62 1.111-.05 1.631-.07 3.533-.077l.747-.002h.28zM16 5.068h-1.231c-2.455.004-2.933.022-4.158.077-1.3.06-2.006.277-2.476.46a4.13 4.13 0 0 0-1.533.997 4.13 4.13 0 0 0-.997 1.533c-.183.47-.4 1.176-.46 2.476-.055 1.225-.073 1.703-.077 4.158v2.461c.004 2.455.022 2.933.077 4.158.06 1.3.277 2.006.46 2.476.241.623.53 1.067.997 1.533.467.467.91.756 1.533.998.47.182 1.176.4 2.476.459.318.014.585.026.85.036l.227.008c.686.022 1.444.03 3.081.033h2.462a99.2 99.2 0 0 0 3.08-.033l.228-.008c.264-.01.532-.022.849-.036 1.3-.06 2.006-.277 2.476-.46a4.13 4.13 0 0 0 1.533-.997 4.13 4.13 0 0 0 .998-1.533c.182-.47.4-1.176.459-2.476.056-1.225.073-1.703.077-4.158v-2.461c-.004-2.455-.021-2.933-.077-4.158-.06-1.3-.277-2.006-.46-2.476a4.13 4.13 0 0 0-.997-1.533 4.13 4.13 0 0 0-1.533-.997c-.47-.183-1.176-.4-2.476-.46-1.225-.055-1.703-.073-4.158-.077h-.895zm0 4.084a6.848 6.848 0 1 1 0 13.695 6.848 6.848 0 0 1 0-13.695zm0 2.403a4.445 4.445 0 1 0 0 8.89 4.445 4.445 0 0 0 0-8.89zm7.118-4.274a1.6 1.6 0 1 1 0 3.2 1.6 1.6 0 0 1 0-3.2z" fill="#191919" fill-rule="evenodd"></path></svg>