<svg viewBox="0 0 32 32" id="social-snapchat" xmlns="http://www.w3.org/2000/svg"><path d="M29.272 23.51c-.271.63-1.419 1.091-3.507 1.414-.108.144-.198.76-.34 1.238-.084.288-.293.459-.631.459h-.016c-.489 0-1-.224-2.023-.224-1.381 0-1.858.313-2.93 1.065-1.138.798-2.227 1.487-3.856 1.417-1.648.12-3.022-.875-3.795-1.417-1.078-.758-1.553-1.065-2.929-1.065-.982 0-1.6.244-2.023.244-.42 0-.584-.254-.647-.467-.141-.476-.23-1.1-.34-1.248-1.077-.166-3.505-.587-3.568-1.662a.551.551 0 0 1 .463-.573c3.624-.592 5.256-4.286 5.324-4.443l.012-.027c.193-.39.237-.716.128-.969-.263-.616-1.399-.835-1.877-1.024-1.235-.484-1.407-1.04-1.334-1.422.127-.664 1.131-1.072 1.719-.8.464.217.877.326 1.227.326.26 0 .426-.062.518-.112-.107-1.858-.37-4.513.296-5.996 1.76-3.916 5.487-4.22 6.586-4.22L16.257 4c2.717 0 5.326 1.385 6.6 4.222.667 1.481.404 4.124.297 5.998.083.045.227.1.448.11.333-.015.72-.123 1.15-.323.317-.147.75-.127 1.066.003h.002c.493.176.803.528.811.925.01.504-.444.939-1.347 1.293a6.424 6.424 0 0 1-.388.13c-.51.16-1.28.404-1.49.893-.108.254-.065.58.128.97l.013.027c.067.156 1.698 3.85 5.324 4.443.334.054.582.407.402.82z"></path></svg>