<?xml version="1.0" encoding="UTF-8"?>
<svg width="158px" height="26px" viewBox="0 0 158 26" version="1.1" xmlns="http://www.w3.org/2000/svg" xmlns:xlink="http://www.w3.org/1999/xlink">
    <title>logo/wishful/colored</title>
    <defs>
        <linearGradient x1="100.840881%" y1="50%" x2="10.528557%" y2="50%" id="linearGradient-1">
            <stop stop-color="#CBE4F1" offset="0%"></stop>
            <stop stop-color="#C8D1E7" offset="9.95609579%"></stop>
            <stop stop-color="#C8C1DE" offset="16.8575735%"></stop>
            <stop stop-color="#F4D1E1" offset="42.130778%"></stop>
            <stop stop-color="#F6CFBD" offset="59.485784%"></stop>
            <stop stop-color="#F9F5D1" offset="86.2008671%"></stop>
            <stop stop-color="#CDE3CD" offset="100%"></stop>
        </linearGradient>
    </defs>
    <g id="final-nav" stroke="none" stroke-width="1" fill="none" fill-rule="evenodd">
        <g id="v1-skincare" transform="translate(-65.000000, -174.000000)" fill="url(#linearGradient-1)" fill-rule="nonzero">
            <g id="Group" transform="translate(65.500000, 174.000000)">
                <g id="Wishful_Logo-Final" transform="translate(-0.000000, -0.000000)">
                    <path d="M16.6020408,0.00123405278 L23.3265306,17.5522545 L29.9846939,0.506336094 L33.2040816,0.506336094 L23.3265306,25.2512341 L16.6020408,7.7946014 L9.88010204,25.2512341 L0,0.506336094 L3.21938776,0.506336094 L9.88010204,17.5522545 L16.6020408,0.00123405278 Z M65.4260204,3.60072385 L63.0663265,5.0190912 C62.1811224,3.53694834 61.0459184,2.77929528 59.2397959,2.77929528 C57.3443878,2.77929528 55.2627551,4.07266262 55.2627551,6.1568463 C55.2627551,8.0190912 57.0918367,8.99613201 58.5790816,9.56500956 L60.2831633,10.2282749 C63.6607143,11.5548055 66.1862245,13.4170504 66.1862245,17.3940912 C66.1862245,21.7180708 62.8392857,24.8099075 58.5790816,24.8099075 C54.7270408,24.8099075 51.7295918,21.9706218 51.2244898,18.1517443 L54.2219388,17.5190912 C54.1913265,20.1389892 56.2627551,22.0318463 58.8316327,22.0318463 C61.4005102,22.0318463 63.2193878,19.8864381 63.2193878,17.3940912 C63.2193878,14.8430708 61.1785714,13.7308259 59.1147959,12.8787851 L57.4744898,12.1849075 C54.7576531,11.0165402 52.2959184,9.47062181 52.2959184,6.1568463 C52.2959184,2.30480548 55.7066327,0.00123405278 59.3035714,0.00123405278 C61.8593258,-0.0473849396 64.2257045,1.34384854 65.4260204,3.60072385 Z M123.415816,0.506336094 L123.415816,14.5522545 C123.415816,18.4349075 124.584184,22.0318463 129.160714,22.0318463 C133.737245,22.0318463 134.905612,18.4349075 134.905612,14.5522545 L134.905612,0.506336094 L137.867347,0.506336094 L137.867347,15.5573565 C137.867347,20.7971524 134.617347,24.8048055 129.155612,24.8048055 C123.693878,24.8048055 120.443878,20.7971524 120.443878,15.5573565 L120.443878,0.506336094 L123.415816,0.506336094 Z M42.9923469,0.506336094 L42.9923469,24.3048055 L40.0229592,24.3048055 L40.0229592,0.506336094 L42.9923469,0.506336094 Z M77.2066327,0.506336094 L77.2066327,10.1007238 L88.5382653,10.1007238 L88.5382653,0.506336094 L91.505102,0.506336094 L91.505102,24.3048055 L88.5382653,24.3048055 L88.5382653,12.8787851 L77.2066327,12.8787851 L77.2066327,24.3048055 L74.2397959,24.3048055 L74.2397959,0.506336094 L77.2066327,0.506336094 Z M112.336735,0.506336094 L112.336735,3.22062181 L103.783163,3.22062181 L103.783163,9.91194834 L112.053571,9.91194834 L112.053571,12.6262341 L103.783163,12.6262341 L103.783163,24.3048055 L100.816327,24.3048055 L100.816327,0.506336094 L112.336735,0.506336094 Z M149.984694,0.506336094 L149.992347,21.5905198 L157.221939,21.5905198 L157.221939,24.3048055 L147.017857,24.3048055 L147.017857,0.506336094 L149.984694,0.506336094 Z" id="Combined-Shape"></path>
                </g>
            </g>
        </g>
    </g>
</svg>